<svg xmlns="http://www.w3.org/2000/svg" width="96" height="96" viewBox="0 0 96 96" fill="none">
  <defs>
    <filter id="filter0_f_84_430" x="-25%" y="-25%" width="200%" height="200%" filterUnits="userSpaceOnUse" color-interpolation-filters="sRGB">
      <feFlood flood-opacity="0" result="BackgroundImageFix"/>
      <feBlend mode="normal" in="SourceGraphic" in2="BackgroundImageFix" result="shape"/>
      <feGaussianBlur stdDeviation="0.4" result="effect1_foregroundBlur_84_430"/>
    </filter>
    <filter id="filter1_f_84_430" x="-25%" y="-25%" width="200%" height="200%" filterUnits="userSpaceOnUse" color-interpolation-filters="sRGB">
      <feFlood flood-opacity="0" result="BackgroundImageFix"/>
      <feBlend mode="normal" in="SourceGraphic" in2="BackgroundImageFix" result="shape"/>
      <feGaussianBlur stdDeviation="4" result="effect1_foregroundBlur_84_430"/>
    </filter>
    <filter id="filter2_f_84_430" x="-25%" y="-25%" width="200%" height="200%" filterUnits="userSpaceOnUse" color-interpolation-filters="sRGB">
      <feFlood flood-opacity="0" result="BackgroundImageFix"/>
      <feBlend mode="normal" in="SourceGraphic" in2="BackgroundImageFix" result="shape"/>
      <feGaussianBlur stdDeviation="0.4" result="effect1_foregroundBlur_84_430"/>
    </filter>
    <filter id="filter3_f_84_430" x="-25%" y="-25%" width="200%" height="200%" filterUnits="userSpaceOnUse" color-interpolation-filters="sRGB">
      <feFlood flood-opacity="0" result="BackgroundImageFix"/>
      <feBlend mode="normal" in="SourceGraphic" in2="BackgroundImageFix" result="shape"/>
      <feGaussianBlur stdDeviation="4" result="effect1_foregroundBlur_84_430"/>
    </filter>
    <linearGradient id="paint0_linear_84_430" x1="79.5" y1="102" x2="68" y2="1.5" gradientUnits="userSpaceOnUse">
      <stop stop-color="#2E516F"/>
      <stop offset="1" stop-color="#3A6F94"/>
    </linearGradient>
    <linearGradient id="paint1_linear_84_430" x1="15.5" y1="-2.5" x2="15.5" y2="104" gradientUnits="userSpaceOnUse">
      <stop stop-color="#4E93BE"/>
      <stop offset="1" stop-color="#2E516F"/>
    </linearGradient>
    <linearGradient id="paint2_linear_84_430" x1="54" y1="12" x2="54" y2="84" gradientUnits="userSpaceOnUse">
      <stop stop-color="#96C7DC"/>
      <stop offset="1" stop-color="#4E93BE"/>
    </linearGradient>
    <linearGradient id="paint3_linear_84_430" x1="42" y1="12" x2="42" y2="84" gradientUnits="userSpaceOnUse">
      <stop stop-color="#BADBE8"/>
      <stop offset="1" stop-color="#7BB3D1"/>
    </linearGradient>
    <linearGradient id="paint4_linear_84_430" x1="50" y1="81.5" x2="50" y2="43.5" gradientUnits="userSpaceOnUse">
      <stop stop-color="#4E93BE"/>
      <stop offset="1" stop-color="#7BB3D1" stop-opacity="0"/>
    </linearGradient>
    <clipPath id="clip0_84_430">
      <rect width="96" height="96" fill="white"/>
    </clipPath>
    <clipPath id="clip1_84_430">
      <rect width="96" height="96" fill="white"/>
    </clipPath>
  </defs>
  <g clip-path="url(#clip0_84_430)">
    <g clip-path="url(#clip1_84_430)">
      <mask id="mask0_84_430" style="mask-type:alpha" maskUnits="userSpaceOnUse" x="0" y="12" width="96" height="72">
        <path d="M4 12C1.79086 12 0 13.7909 0 16V80C0 82.2091 1.79086 84 4 84H34.3431C35.404 84 36.4214 83.5786 37.1716 82.8284L48 72L58.8284 82.8284C59.5786 83.5786 60.596 84 61.6569 84H92C94.2091 84 96 82.2091 96 80V16C96 13.7909 94.2091 12 92 12H61.6569C60.596 12 59.5786 12.4214 58.8284 13.1716L48 24L37.1716 13.1716C36.4214 12.4214 35.404 12 34.3431 12H4Z" fill="#FFFFFF"/>
      </mask>
      <g mask="url(#mask0_84_430)">
        <path d="M68 12H96V84H68V12Z" fill="url(#paint0_linear_84_430)"/>
        <path d="M0 12H28V84H0V12Z" fill="url(#paint1_linear_84_430)"/>
        <g filter="url(#filter0_f_84_430)">
          <path d="M84 16.4C84 14.1909 82.2091 12.4 80 12.4H60L32.4853 39.9148C27.799 44.601 27.799 52.199 32.4853 56.8853L60 84.4H80C82.2091 84.4 84 82.6092 84 80.4V62.0569C84 60.996 83.5786 59.9786 82.8284 59.2285L72 48.4L82.8284 37.5716C83.5786 36.8215 84 35.804 84 34.7432V16.4Z" fill="black" fill-opacity="0.24"/>
        </g>
        <g filter="url(#filter1_f_84_430)">
          <path d="M84 18C84 15.7909 82.2091 14 80 14H60L32.4853 41.5147C27.799 46.201 27.799 53.799 32.4853 58.4853L60 86H80C82.2091 86 84 84.2091 84 82V63.6569C84 62.596 83.5786 61.5786 82.8284 60.8284L72 50L82.8284 39.1716C83.5786 38.4214 84 37.404 84 36.3431V18Z" fill="black" fill-opacity="0.32"/>
        </g>
        <path d="M84 16C84 13.7909 82.2091 12 80 12H60L32.4853 39.5147C27.799 44.201 27.799 51.799 32.4853 56.4853L60 84H80C82.2091 84 84 82.2091 84 80V61.6569C84 60.596 83.5786 59.5786 82.8284 58.8284L72 48L82.8284 37.1716C83.5786 36.4214 84 35.404 84 34.3431V16Z" fill="url(#paint2_linear_84_430)"/>
        <g filter="url(#filter2_f_84_430)">
          <path d="M12 16.4C12 14.1909 13.7909 12.4 16 12.4H36L63.5147 39.9148C68.201 44.601 68.201 52.199 63.5147 56.8853L36 84.4H16C13.7909 84.4 12 82.6092 12 80.4V62.0569C12 60.996 12.4214 59.9786 13.1716 59.2285L24 48.4L13.1716 37.5716C12.4214 36.8215 12 35.804 12 34.7432V16.4Z" fill="black" fill-opacity="0.24"/>
        </g>
        <g filter="url(#filter3_f_84_430)">
          <path d="M12 18C12 15.7909 13.7909 14 16 14H36L63.5147 41.5147C68.201 46.201 68.201 53.799 63.5147 58.4853L36 86H16C13.7909 86 12 84.2091 12 82V63.6569C12 62.596 12.4214 61.5786 13.1716 60.8284L24 50L13.1716 39.1716C12.4214 38.4214 12 37.404 12 36.3431V18Z" fill="black" fill-opacity="0.32"/>
        </g>
        <path d="M12 16C12 13.7909 13.7909 12 16 12H36L63.5147 39.5147C68.201 44.201 68.201 51.799 63.5147 56.4853L36 84H16C13.7909 84 12 82.2091 12 80V61.6569C12 60.596 12.4214 59.5786 13.1716 58.8284L24 48L13.1716 37.1716C12.4214 36.4214 12 35.404 12 34.3431V16Z" fill="url(#paint3_linear_84_430)"/>
        <path d="M32.4853 39.5147L48 24L63.5147 39.5147C68.201 44.201 68.201 51.799 63.5147 56.4853L48 72L32.4853 56.4853C27.799 51.799 27.799 44.201 32.4853 39.5147Z" fill="url(#paint4_linear_84_430)"/>
      </g>
    </g>
  </g>
</svg>
